<?xml version="1.0" encoding="iso-8859-1"?>
<!-- Generator: Adobe Illustrator 16.0.0, SVG Export Plug-In . SVG Version: 6.00 Build 0)  -->
<!DOCTYPE svg PUBLIC "-//W3C//DTD SVG 1.1//EN" "http://www.w3.org/Graphics/SVG/1.1/DTD/svg11.dtd">
<svg version="1.1" id="&#x56FE;&#x5C42;_1" xmlns="http://www.w3.org/2000/svg" xmlns:xlink="http://www.w3.org/1999/xlink" x="0px"
	 y="0px" width="283.46px" height="283.46px" viewBox="0 0 283.46 283.46" style="enable-background:new 0 0 283.46 283.46;"
	 xml:space="preserve">
<g>
	<g>
		<path style="fill:#F9CDC4;" d="M279,141.5c0,75.625-61.875,137.5-137.5,137.5S4,217.126,4,141.5S65.875,4,141.5,4
			S279,65.875,279,141.5z"/>
	</g>
	<defs>
		<filter id="Adobe_OpacityMaskFilter" filterUnits="userSpaceOnUse" x="4" y="4" width="275" height="275.001">
			<feFlood  style="flood-color:white;flood-opacity:1" result="back"/>
			<feBlend  in="SourceGraphic" in2="back" mode="normal"/>
		</filter>
	</defs>
	<mask maskUnits="userSpaceOnUse" x="4" y="4" width="275" height="275.001" id="SVGID_1_">
		<g style="filter:url(#Adobe_OpacityMaskFilter);">
			<image style="overflow:visible;" width="1163" height="1163" xlink:href="D950BAA9.jpg"  transform="matrix(0.24 0 0 0.24 2 2)">
			</image>
		</g>
	</mask>
	<g style="opacity:0.5;mask:url(#SVGID_1_);">
		<path style="fill:#DEECC0;" d="M279,141.5c0,75.625-61.875,137.5-137.5,137.5S4,217.126,4,141.5S65.875,4,141.5,4
			S279,65.875,279,141.5z"/>
	</g>
</g>
<path style="fill:#ED7C82;" d="M143.285,190.732l39.89,13.297c1.489,0.496,3.027-0.612,3.027-2.182v-8.254l30.516-12.716
	c1.665-0.693,1.92-2.945,0.452-3.994l-16.663-11.901l19.913-14.934c1.367-1.026,1.177-3.133-0.352-3.897l-8.116-4.058l17.096-34.192
	c0.973-1.944-1.046-4.027-3.021-3.116l-31.241,14.419l-4.08-8.161c-0.759-1.519-2.846-1.719-3.88-0.373l-17.84,23.191
	c-1.621,2.107-4.948,0.338-4.107-2.186l11.736-35.209c0.494-1.482-0.608-3.013-2.171-3.013h-13.991l7.488-24.962
	c0.496-1.654-0.948-3.24-2.641-2.902l-10.571,2.114l-9.456-16.55c-0.878-1.539-3.096-1.539-3.975,0l-9.457,16.549l-10.569-2.113
	c-1.693-0.338-3.138,1.248-2.642,2.902l7.489,24.961h-13.992c-1.563,0-2.666,1.531-2.172,3.014l11.737,35.209
	c0.842,2.523-2.486,4.292-4.108,2.184l-17.838-23.191c-1.036-1.345-3.122-1.144-3.882,0.375l-4.08,8.161l-31.241-14.419
	c-1.974-0.912-3.993,1.172-3.021,3.116l17.095,34.191l-8.114,4.059c-1.53,0.765-1.721,2.871-0.352,3.897l19.911,14.934
	l-16.663,11.901c-1.468,1.049-1.212,3.301,0.453,3.994l30.515,12.716v8.254c0,1.569,1.538,2.678,3.027,2.182L143.285,190.732z"/>
<g>
	<path style="fill:#D9626B;" d="M226.027,104.785l-31.242,14.419l-4.08-8.161c-0.759-1.519-2.846-1.719-3.88-0.373l-17.84,23.191
		c-0.867,1.128-2.225,1.146-3.169,0.531l-22.531,56.34l85.407-85.407C228.066,104.639,227.04,104.316,226.027,104.785z"/>
	<path style="fill:#D9626B;" d="M141.298,51.154l-9.457,16.55l-10.569-2.114c-1.693-0.338-3.138,1.248-2.642,2.902l7.489,24.962
		h-13.992c-1.563,0-2.666,1.53-2.172,3.013l11.737,35.209c0.508,1.522-0.503,2.771-1.74,3.058l23.333,55.999V50
		C142.512,50,141.738,50.385,141.298,51.154z"/>
	<path style="fill:#D9626B;" d="M57.522,107.901l17.095,34.191l-8.116,4.059c-1.528,0.765-1.719,2.871-0.35,3.896l19.911,14.935
		l-16.663,11.901c-1.468,1.049-1.212,3.301,0.453,3.994l30.515,12.715v8.253c0,1.571,1.538,2.679,3.027,2.184l39.891-13.297
		l-85.408-85.404C57.284,105.979,57.049,106.956,57.522,107.901z"/>
</g>
<path style="fill:#F4A461;" d="M219.698,114.32c-1.117-1.117-2.929-1.117-4.046,0l-69.505,69.505v-54.853l24.91-24.912
	c1.117-1.117,1.117-2.929,0-4.046c-1.117-1.118-2.928-1.118-4.045,0l-20.865,20.866V82.01c0-1.58-1.28-2.862-2.862-2.862
	c-1.581,0-2.861,1.282-2.861,2.862v38.871l-20.865-20.866c-1.118-1.118-2.929-1.118-4.046,0c-1.118,1.117-1.118,2.929,0,4.046
	l24.911,24.911v54.854L70.918,114.32c-1.117-1.117-2.928-1.117-4.045,0s-1.117,2.928,0,4.045l67.085,67.087l-35.759-8.94
	c-1.529-0.393-3.087,0.551-3.467,2.082c-0.386,1.534,0.549,3.087,2.083,3.47l43.608,10.903v32.099c0,1.58,1.28,2.861,2.861,2.861
	c1.582,0,2.862-1.281,2.862-2.861v-32.099l43.608-10.903c1.534-0.383,2.468-1.936,2.082-3.47c-0.383-1.531-1.937-2.474-3.468-2.082
	l-35.759,8.94l67.087-67.087C220.815,117.248,220.815,115.438,219.698,114.32z"/>
<path style="fill:#F7BD6A;" d="M167.013,162.96l-20.865,20.865v-36.01c0-1.58-1.282-2.861-2.862-2.861s-2.861,1.281-2.861,2.861
	v36.01l-20.865-20.865c-1.803-1.803-4.885-0.527-4.885,2.022c0,0.759,0.302,1.486,0.838,2.022l18.446,18.447l-15.729-3.933
	c-1.806-0.452-3.556,0.914-3.556,2.775c0,1.313,0.894,2.457,2.167,2.775l21.417,5.354c1.272,0.319,2.166,1.463,2.166,2.776v29.865
	c0,1.58,1.28,2.86,2.861,2.86c1.582,0,2.86-1.28,2.86-2.86V195.2c0-1.313,0.894-2.457,2.168-2.776l21.416-5.354
	c1.272-0.318,2.166-1.463,2.166-2.775c0-1.861-1.748-3.228-3.555-2.775l-15.729,3.933l18.446-18.447
	c0.537-0.536,0.838-1.264,0.838-2.022C171.897,162.433,168.815,161.157,167.013,162.96z"/>
<path style="fill:#F7DA7E;" d="M143.285,227.927c-1.58,0-2.861-1.281-2.861-2.861v-5.722c0-1.58,1.281-2.861,2.861-2.861
	s2.862,1.281,2.862,2.861v5.722C146.147,226.646,144.865,227.927,143.285,227.927z"/>
</svg>
